<svg width="35" height="35" viewBox="0 0 35 35" fill="none" xmlns="http://www.w3.org/2000/svg">
<path fill-rule="evenodd" clip-rule="evenodd" d="M0 0H35V35H0V0ZM2 2H33V27H2V2ZM11.4268 18.3869C12.0717 18.7406 12.7998 18.9174 13.6111 18.9174C14.2768 18.9174 14.9217 18.7718 15.5458 18.4805C15.7965 18.3552 16.0253 18.2265 16.2323 18.0945V23.1301L18.2607 24.6279H18.5727V16.5324C18.881 16.2188 19.2139 15.8904 19.5713 15.5473C20.1122 15.048 20.6738 14.6215 21.2563 14.2679C21.8596 13.9142 22.4629 13.7374 23.0662 13.7374C23.5864 13.7374 24.0024 13.9142 24.3144 14.2679C24.6265 14.6007 24.7825 15.0584 24.7825 15.6409C24.7825 16.265 24.6474 16.8787 24.3768 17.482C24.1272 18.0645 23.8255 18.6158 23.4719 19.1359C23.1183 19.6559 22.775 20.1136 22.4421 20.5089L24.5953 22.0691C25.157 21.4242 25.6459 20.6441 26.0619 19.7287C26.4988 18.8134 26.7172 17.9189 26.7172 17.0451C26.7172 16.1922 26.5821 15.4537 26.3116 14.8296C26.0619 14.1847 25.6978 13.6334 25.2194 13.1757C24.7825 12.7388 24.2832 12.3956 23.7215 12.1459C23.1807 11.8755 22.567 11.7403 21.8804 11.7403C21.1523 11.7403 20.4762 11.9067 19.8521 12.2396C19.3981 12.4817 18.9717 12.7623 18.5727 13.0815V7.12194H29.12V6.84109L27.8718 5H4V5.34325L5.2482 7.12194H7.80701V11.8963C7.80701 12.6036 7.82782 13.2381 7.86942 13.7998C7.93183 14.3615 8.09825 14.9128 8.3687 15.4537C8.65993 15.9738 9.12801 16.5458 9.77292 17.1699C10.2306 17.6068 10.7819 18.0125 11.4268 18.3869ZM10.1786 7.12194H16.2323V15.0861C15.7747 15.5115 15.2754 15.8628 14.7345 16.1402C13.9232 16.5562 13.1535 16.7643 12.4253 16.7643C12.0509 16.7643 11.6868 16.7019 11.3332 16.577C11.0003 16.4314 10.7195 16.1714 10.4906 15.7969C10.2826 15.4017 10.1786 14.84 10.1786 14.1119V7.12194ZM7.61978 21.9443C7.61978 23.0677 8.17107 23.6294 9.27364 23.6294C10.3346 23.6294 10.8651 23.0677 10.8651 21.9443C10.8651 20.8417 10.3346 20.2904 9.27364 20.2904C8.17107 20.2904 7.61978 20.8417 7.61978 21.9443Z" fill="white"/>
</svg>
